#Comment line ignore any data following # character 
#Hierarchical Translation and Rotation (.htr) file 
[Header]	
#Header keywords are followed by a single value 
FileType HTR		#Single word string
DataType HTRS		#Translation followed by rotation and scale data
FileVersion 1		#integer
NumSegments 64		#integer
NumFrames 3		#integer
DataFrameRate 30		#integer, data frame rate in this file
EulerRotationOrder ZYX
CalibrationUnits mm
RotationUnits Degrees
GlobalAxisofGravity Y
BoneLengthAxis Y
ScaleFactor 1.00
[SegmentNames&Hierarchy]
#CHILD	PARENT
Pinger_Root GLOBAL
Pelvis Pinger_Root
L_Hip Pelvis
R_Hip Pelvis
Rear_Leg01 Pelvis
Spine1 Pelvis
L_Leg01 L_Hip
L_Leg02 L_Leg01
L_Leg03 L_Leg02
L_Foot L_Leg03
L_Toe1_01 L_Foot
L_Toe2_01 L_Foot
L_Toe3_01 L_Foot
planeAlignerLeft L_Foot
L_Toe1_02 L_Toe1_01
L_Toe1_03 L_Toe1_02
L_Toe2_02 L_Toe2_01
L_Toe2_03 L_Toe2_02
L_Toe3_02 L_Toe3_01
L_Toe3_03 L_Toe3_02
planeLockWeightLeft planeAlignerLeft
R_Leg01 R_Hip
R_Leg02 R_Leg01
R_Leg03 R_Leg02
R_Foot R_Leg03
planeAlignerRight R_Foot
R_Toe1_01 R_Foot
R_Toe2_01 R_Foot
R_Toe3_01 R_Foot
planeLockWeightRight planeAlignerRight
R_Toe1_02 R_Toe1_01
R_Toe1_03 R_Toe1_02
R_Toe2_02 R_Toe2_01
R_Toe2_03 R_Toe2_02
R_Toe3_02 R_Toe3_01
R_Toe3_03 R_Toe3_02
Rear_Leg02 Rear_Leg01
Rear_Leg03 Rear_Leg02
Rear_Leg04 Rear_Leg03
Rear_Foot Rear_Leg04
planeAlignerCenter Rear_Foot
Rear_Toe1_01 Rear_Foot
Rear_Toe2_01 Rear_Foot
Rear_Toe3_01 Rear_Foot
planeLockWeightCenter planeAlignerCenter
Rear_Toe1_02 Rear_Toe1_01
Rear_Toe1_03 Rear_Toe1_02
Rear_Toe2_02 Rear_Toe2_01
Rear_Toe2_03 Rear_Toe2_02
Rear_Toe3_02 Rear_Toe3_01
Rear_Toe3_03 Rear_Toe3_02
Back_Bone Spine1
Head Spine1
Motor_Bone Back_Bone
Ping_Mechanism Back_Bone
BN_LookIK Head
bottomMouth Head
L_Mouth01 Head
L_mouthFront Head
mouthGun Head
R_Mouth01 Head
R_mouthFront Head
TopMouth Head
weapon_bone Head
[BasePosition]
#SegmentName Tx, Ty, Tz, Rx, Ry, Rz, BoneLength
Pinger_Root 0.000000 0.000000 0.000000 -90.000000 0.000000 0.000000 10.000000 
Pelvis 0.000000 0.000000 0.000000 0.000000 0.000000 0.000000 10.000000 
L_Hip 0.000000 0.000000 0.000000 0.000000 0.000000 0.000000 10.000000 
R_Hip 0.000000 0.000000 0.000000 0.000000 0.000000 0.000000 10.000000 
Rear_Leg01 0.000000 0.000000 0.000000 0.000000 0.000000 0.000000 10.000000 
Spine1 0.000000 0.000000 0.000000 0.000000 0.000000 0.000000 10.000000 
L_Leg01 0.000000 0.000000 0.000000 0.000000 0.000000 0.000000 10.000000 
L_Leg02 0.000000 0.000000 0.000000 0.000000 0.000000 0.000000 10.000000 
L_Leg03 0.000000 0.000000 0.000000 0.000000 0.000000 0.000000 10.000000 
L_Foot 0.000000 0.000000 0.000000 0.000000 0.000000 0.000000 10.000000 
L_Toe1_01 0.000000 0.000000 0.000000 0.000000 0.000000 0.000000 10.000000 
L_Toe2_01 0.000000 0.000000 0.000000 0.000000 0.000000 0.000000 10.000000 
L_Toe3_01 0.000000 0.000000 0.000000 0.000000 0.000000 0.000000 10.000000 
planeAlignerLeft 0.000000 0.000000 0.000000 0.000000 0.000000 0.000000 10.000000 
L_Toe1_02 0.000000 0.000000 0.000000 0.000000 0.000000 0.000000 10.000000 
L_Toe1_03 0.000000 0.000000 0.000000 0.000000 0.000000 0.000000 10.000000 
L_Toe2_02 0.000000 0.000000 0.000000 0.000000 0.000000 0.000000 10.000000 
L_Toe2_03 0.000000 0.000000 0.000000 0.000000 0.000000 0.000000 10.000000 
L_Toe3_02 0.000000 0.000000 0.000000 0.000000 0.000000 0.000000 10.000000 
L_Toe3_03 0.000000 0.000000 0.000000 0.000000 0.000000 0.000000 10.000000 
planeLockWeightLeft 0.000000 0.000000 0.000000 0.000000 0.000000 0.000000 10.000000 
R_Leg01 0.000000 0.000000 0.000000 0.000000 0.000000 0.000000 10.000000 
R_Leg02 0.000000 0.000000 0.000000 0.000000 0.000000 0.000000 10.000000 
R_Leg03 0.000000 0.000000 0.000000 0.000000 0.000000 0.000000 10.000000 
R_Foot 0.000000 0.000000 0.000000 0.000000 0.000000 0.000000 10.000000 
planeAlignerRight 0.000000 0.000000 0.000000 0.000000 0.000000 0.000000 10.000000 
R_Toe1_01 0.000000 0.000000 0.000000 0.000000 0.000000 0.000000 10.000000 
R_Toe2_01 0.000000 0.000000 0.000000 0.000000 0.000000 0.000000 10.000000 
R_Toe3_01 0.000000 0.000000 0.000000 0.000000 0.000000 0.000000 10.000000 
planeLockWeightRight 0.000000 0.000000 0.000000 0.000000 0.000000 0.000000 10.000000 
R_Toe1_02 0.000000 0.000000 0.000000 0.000000 0.000000 0.000000 10.000000 
R_Toe1_03 0.000000 0.000000 0.000000 0.000000 0.000000 0.000000 10.000000 
R_Toe2_02 0.000000 0.000000 0.000000 0.000000 0.000000 0.000000 10.000000 
R_Toe2_03 0.000000 0.000000 0.000000 0.000000 0.000000 0.000000 10.000000 
R_Toe3_02 0.000000 0.000000 0.000000 0.000000 0.000000 0.000000 10.000000 
R_Toe3_03 0.000000 0.000000 0.000000 0.000000 0.000000 0.000000 10.000000 
Rear_Leg02 0.000000 0.000000 0.000000 0.000000 0.000000 0.000000 10.000000 
Rear_Leg03 0.000000 0.000000 0.000000 0.000000 0.000000 0.000000 10.000000 
Rear_Leg04 0.000000 0.000000 0.000000 0.000000 0.000000 0.000000 10.000000 
Rear_Foot 0.000000 0.000000 0.000000 0.000000 0.000000 0.000000 10.000000 
planeAlignerCenter 0.000000 0.000000 0.000000 0.000000 0.000000 0.000000 10.000000 
Rear_Toe1_01 0.000000 0.000000 0.000000 0.000000 0.000000 0.000000 10.000000 
Rear_Toe2_01 0.000000 0.000000 0.000000 0.000000 0.000000 0.000000 10.000000 
Rear_Toe3_01 0.000000 0.000000 0.000000 0.000000 0.000000 0.000000 10.000000 
planeLockWeightCenter 0.000000 0.000000 0.000000 0.000000 0.000000 0.000000 10.000000 
Rear_Toe1_02 0.000000 0.000000 0.000000 0.000000 0.000000 0.000000 10.000000 
Rear_Toe1_03 0.000000 0.000000 0.000000 0.000000 0.000000 0.000000 10.000000 
Rear_Toe2_02 0.000000 0.000000 0.000000 0.000000 0.000000 0.000000 10.000000 
Rear_Toe2_03 0.000000 0.000000 0.000000 0.000000 0.000000 0.000000 10.000000 
Rear_Toe3_02 0.000000 0.000000 0.000000 0.000000 0.000000 0.000000 10.000000 
Rear_Toe3_03 0.000000 0.000000 0.000000 0.000000 0.000000 0.000000 10.000000 
Back_Bone 0.000000 0.000000 0.000000 0.000000 0.000000 0.000000 10.000000 
Head 0.000000 0.000000 0.000000 0.000000 0.000000 0.000000 10.000000 
Motor_Bone 0.000000 0.000000 0.000000 0.000000 0.000000 0.000000 10.000000 
Ping_Mechanism 0.000000 0.000000 0.000000 0.000000 0.000000 0.000000 10.000000 
BN_LookIK 0.000000 0.000000 0.000000 0.000000 0.000000 0.000000 10.000000 
bottomMouth 0.000000 0.000000 0.000000 0.000000 0.000000 0.000000 10.000000 
L_Mouth01 0.000000 0.000000 0.000000 0.000000 0.000000 0.000000 10.000000 
L_mouthFront 0.000000 0.000000 0.000000 0.000000 0.000000 0.000000 10.000000 
mouthGun 0.000000 0.000000 0.000000 0.000000 0.000000 0.000000 10.000000 
R_Mouth01 0.000000 0.000000 0.000000 0.000000 0.000000 0.000000 10.000000 
R_mouthFront 0.000000 0.000000 0.000000 0.000000 0.000000 0.000000 10.000000 
TopMouth 0.000000 0.000000 0.000000 0.000000 0.000000 0.000000 10.000000 
weapon_bone 0.000000 0.000000 0.000000 0.000000 0.000000 0.000000 10.000000 
#Beginning of Data. Separated by tabs
#Fr	Tx	Ty	Tz	Rx	Ry	Rz	SF
[Pinger_Root]
263 0.000000 -2462.312500 0.000000 -0.000075 -0.000000 -0.000020 2462.312500
264 0.000000 -2477.026367 0.000000 -0.000075 -0.000000 -0.000020 2477.026367
265 0.000000 -2491.739990 0.000000 -0.000075 -0.000000 -0.000020 2491.739990
[Pelvis]
263 1429.787720 17686.117188 7215.252930 -175.172943 -86.795395 162.293488 19154.708984
264 1429.920166 17700.958984 7212.903809 -175.172943 -86.795395 162.293488 19167.539063
265 1430.052734 17715.794922 7210.555664 -175.172943 -86.795395 162.293488 19180.369141
[L_Hip]
263 5.766392 125.831482 872.656799 160.158691 -45.484905 122.312202 881.701050
264 5.766392 125.831482 872.656799 160.158691 -45.484905 122.312202 881.701050
265 5.766392 125.831482 872.656799 160.158691 -45.484905 122.312202 881.701050
[R_Hip]
263 5.765438 125.836372 -872.654907 38.087841 49.812698 125.703735 881.699829
264 5.765438 125.836372 -872.654907 38.087841 49.812687 125.703735 881.699829
265 5.765438 125.836372 -872.654907 38.087845 49.812687 125.703735 881.699829
[Rear_Leg01]
263 -192.298416 -925.602966 -0.001907 169.651062 1.792150 -160.920944 945.367432
264 -192.298416 -925.602966 -0.001907 169.651505 1.794802 -160.901474 945.367432
265 -192.298416 -925.602966 -0.001907 169.651962 1.797454 -160.882019 945.367432
[Spine1]
263 290.604584 5.007505 0.000477 7.265418 -0.622632 19.289265 290.647736
264 290.604584 5.007505 0.000477 7.265744 -0.619986 19.266817 290.647736
265 290.604584 5.007505 0.000477 7.265744 -0.619986 19.266817 290.647736
[L_Leg01]
263 761.932007 -0.002384 -0.069261 23.855843 -14.312712 -15.488880 761.932068
264 761.932007 -0.002384 -0.069261 23.878441 -14.269272 -15.540099 761.932068
265 761.932007 -0.002384 -0.069261 23.901003 -14.225820 -15.591295 761.932068
[L_Leg02]
263 1441.140503 -0.000954 -0.000715 1.517108 -0.148390 -119.274178 1441.140503
264 1441.140503 -0.000954 -0.000715 1.536553 -0.147435 -119.235352 1441.140503
265 1441.140503 -0.000954 -0.000715 1.555998 -0.146495 -119.196587 1441.140503
[L_Leg03]
263 1686.963989 -0.000715 -0.000954 -0.022769 0.011737 116.449608 1686.963989
264 1686.963989 -0.000715 -0.000954 -0.023041 0.012235 116.605728 1686.963989
265 1686.963989 -0.000715 -0.000954 -0.023312 0.012734 116.761795 1686.963989
[L_Foot]
263 3041.570068 -30.715107 11.297464 2.175357 13.439055 53.693890 3041.746094
264 3041.570068 -30.715107 11.297464 2.176646 13.437602 53.589279 3041.746094
265 3041.570068 -30.715107 11.297464 2.174923 13.432555 53.581223 3041.746094
[L_Toe1_01]
263 -188.216690 -224.732346 -21.137953 93.719505 -6.857923 -171.969055 293.899567
264 -188.216690 -224.732346 -21.137953 93.719559 -6.857268 -171.968872 293.899567
265 -188.216690 -224.732346 -21.137953 93.719612 -6.856612 -171.968658 293.899567
[L_Toe2_01]
263 200.746536 -219.926590 148.838394 -90.025795 -26.310909 -52.675663 332.896027
264 200.746536 -219.926590 148.838394 -90.025345 -26.311108 -52.676151 332.896027
265 200.746536 -219.926590 148.838394 -90.024902 -26.311306 -52.676643 332.896027
[L_Toe3_01]
263 188.832520 -219.859131 -191.078659 -99.788055 13.839008 -67.673027 347.140900
264 188.832520 -219.859131 -191.078659 -99.788055 13.839008 -67.673027 347.140900
265 188.832520 -219.859131 -191.078659 -99.788055 13.839008 -67.673027 347.140900
[planeAlignerLeft]
263 0.812531 -811.448792 -0.314951 0.000000 -90.000000 -90.001900 811.449280
264 0.812531 -811.448792 -0.314951 0.000000 -90.000000 -90.001900 811.449280
265 0.812531 -811.448792 -0.314951 0.000000 -90.000000 -90.001900 811.449280
[L_Toe1_02]
263 413.761139 0.000477 0.000000 0.001384 -25.950844 0.001384 413.761139
264 413.761139 0.000477 0.000000 0.001384 -25.950790 0.001384 413.761139
265 413.761139 0.000477 0.000000 0.001384 -25.950747 0.001384 413.761139
[L_Toe1_03]
263 464.317322 0.000358 -0.000089 0.003733 53.357090 0.003733 464.317322
264 464.317322 0.000358 -0.000089 0.003734 53.357578 0.003734 464.317322
265 464.317322 0.000358 -0.000089 0.003734 53.358097 0.003734 464.317322
[L_Toe2_02]
263 342.235809 -0.000477 0.000238 0.001188 -72.395584 0.001188 342.235809
264 342.235809 -0.000477 0.000238 0.001188 -72.394310 0.001188 342.235809
265 342.235809 -0.000477 0.000238 0.001188 -72.393013 0.001188 342.235809
[L_Toe2_03]
263 420.210846 -0.000715 0.000000 0.029090 85.375565 0.029090 420.210846
264 420.210846 -0.000715 0.000000 0.029090 85.375511 0.029090 420.210846
265 420.210846 -0.000715 0.000000 0.029090 85.375511 0.029090 420.210846
[L_Toe3_02]
263 329.270111 0.000954 0.000000 0.001178 -80.458488 0.001178 329.270111
264 329.270111 0.000954 0.000000 0.001178 -80.469414 0.001178 329.270111
265 329.270111 0.000954 0.000000 0.001178 -80.480331 0.001178 329.270111
[L_Toe3_03]
263 439.137451 -0.001907 0.000954 -179.995956 78.605698 -179.992447 439.137451
264 439.137451 -0.001907 0.000954 -179.995956 78.605698 -179.992447 439.137451
265 439.137451 -0.001907 0.000954 -179.995956 78.605698 -179.992447 439.137451
[planeLockWeightLeft]
263 -0.000954 0.000238 -0.000305 -0.011826 -0.004376 0.005620 0.001029
264 -0.000954 0.000238 -0.000305 -0.011826 -0.004376 0.005620 0.001029
265 -0.000954 0.000238 -0.000305 -0.011826 -0.004376 0.005620 0.001029
[R_Leg01]
263 761.455627 -0.001907 -0.000358 119.953125 -3.388709 39.620369 761.455688
264 761.455627 -0.001907 -0.000358 119.953903 -3.474363 39.551140 761.455688
265 761.455627 -0.001907 -0.000358 119.954773 -3.560008 39.481899 761.455688
[R_Leg02]
263 1441.140625 0.000000 -0.000238 -0.863008 -0.026303 -105.935249 1441.140625
264 1441.140625 0.000000 -0.000238 -0.870448 -0.028458 -106.147469 1441.140625
265 1441.140625 0.000000 -0.000238 -0.877880 -0.030641 -106.359673 1441.140625
[R_Leg03]
263 1686.963989 0.000954 0.001431 0.065866 -0.033711 127.907288 1686.963989
264 1686.963989 0.000954 0.001431 0.066453 -0.033945 127.954849 1686.963989
265 1686.963989 0.000954 0.001431 0.067040 -0.034180 128.002396 1686.963989
[R_Foot]
263 3041.560059 -30.531288 -11.204481 -1.136943 -24.835915 52.322208 3041.734131
264 3041.560059 -30.531288 -11.204481 -1.130105 -24.834187 52.359398 3041.734131
265 3041.560059 -30.531288 -11.204481 -1.123265 -24.832466 52.396591 3041.734131
[planeAlignerRight]
263 -0.635147 -812.270569 -0.364304 0.000000 -89.960434 -90.005180 812.270874
264 -0.635147 -812.270569 -0.364304 0.000000 -89.960434 -90.005180 812.270874
265 -0.635147 -812.270569 -0.364304 0.000000 -89.960434 -90.005180 812.270874
[R_Toe1_01]
263 -188.383347 -224.864899 21.052242 76.763535 -0.414595 -172.728699 294.101532
264 -188.383347 -224.864899 21.052242 76.763535 -0.414595 -172.728699 294.101532
265 -188.383347 -224.864899 21.052242 76.763535 -0.414595 -172.728699 294.101532
[R_Toe2_01]
263 200.637817 -220.002121 -148.787384 -91.743256 32.873833 -59.182163 332.857574
264 200.637817 -220.002121 -148.787384 -91.743256 32.873833 -59.182163 332.857574
265 200.637817 -220.002121 -148.787384 -91.743256 32.873833 -59.182163 332.857574
[R_Toe3_01]
263 188.606735 -220.092957 191.126343 -73.225998 -8.456855 -73.756157 347.192566
264 188.606735 -220.092957 191.126343 -73.225998 -8.456855 -73.756157 347.192566
265 188.606735 -220.092957 191.126343 -73.225998 -8.456855 -73.756157 347.192566
[planeLockWeightRight]
263 -0.000477 0.000000 0.000000 -0.011823 -0.004379 -0.000027 0.000477
264 -0.000477 0.000000 0.000000 -0.011823 -0.004379 -0.000027 0.000477
265 -0.000477 0.000000 0.000000 -0.011823 -0.004379 -0.000027 0.000477
[R_Toe1_02]
263 413.762085 0.000477 -0.000119 0.001394 -24.728397 0.001394 413.762085
264 413.762085 0.000477 -0.000119 0.001394 -24.726377 0.001394 413.762085
265 413.762085 0.000477 -0.000119 0.001394 -24.724358 0.001394 413.762085
[R_Toe1_03]
263 464.317810 0.000000 0.001088 0.006625 69.593369 0.006625 464.317810
264 464.317810 0.000000 0.001088 0.006625 69.593369 0.006625 464.317810
265 464.317810 0.000000 0.001088 0.006625 69.593369 0.006625 464.317810
[R_Toe2_02]
263 342.234741 -0.000954 0.000238 0.001197 -67.236366 0.001197 342.234741
264 342.234741 -0.000954 0.000238 0.001197 -67.239365 0.001197 342.234741
265 342.234741 -0.000954 0.000238 0.001197 -67.242355 0.001197 342.234741
[R_Toe2_03]
263 420.210846 0.000715 -0.000268 0.008231 73.605896 0.008231 420.210846
264 420.210846 0.000715 -0.000268 0.008231 73.605896 0.008231 420.210846
265 420.210846 0.000715 -0.000268 0.008231 73.605896 0.008231 420.210846
[R_Toe3_02]
263 329.270355 -0.000477 -0.000954 0.001184 -74.518616 0.001184 329.270355
264 329.270355 -0.000477 -0.000954 0.001184 -74.518616 0.001184 329.270355
265 329.270355 -0.000477 -0.000954 0.001184 -74.518616 0.001184 329.270355
[R_Toe3_03]
263 439.137939 0.000238 0.001431 -0.011587 83.300278 -0.008085 439.137939
264 439.137939 0.000238 0.001431 -0.011587 83.300278 -0.008085 439.137939
265 439.137939 0.000238 0.001431 -0.011587 83.300278 -0.008085 439.137939
[Rear_Leg02]
263 1162.777710 -0.029802 0.005960 0.319338 -2.972336 -117.357552 1162.777710
264 1162.777710 -0.029802 0.005960 0.325246 -2.971629 -117.475227 1162.777710
265 1162.777710 -0.029802 0.005960 0.331152 -2.970912 -117.592911 1162.777710
[Rear_Leg03]
263 607.192505 -0.013351 -0.073195 0.006515 -0.001983 62.061012 607.192505
264 607.192505 -0.013351 -0.073195 0.006514 -0.001985 62.107681 607.192505
265 607.192505 -0.013351 -0.073195 0.006514 -0.001988 62.154354 607.192505
[Rear_Leg04]
263 995.874512 -0.020504 -0.011921 -0.039917 -0.016679 53.918335 995.874573
264 995.874512 -0.020504 -0.011921 -0.039929 -0.016649 54.004551 995.874573
265 995.874512 -0.020504 -0.011921 -0.039942 -0.016619 54.090744 995.874573
[Rear_Foot]
263 3096.176270 -0.067472 -0.041425 -142.172089 85.829369 50.006630 3096.176270
264 3096.176270 -0.067472 -0.041425 -142.229568 85.826698 49.960594 3096.176270
265 3096.176270 -0.067472 -0.041425 -142.286942 85.824020 49.914654 3096.176270
[planeAlignerCenter]
263 0.350077 0.966311 -838.790894 0.000009 0.000003 -179.999985 838.791565
264 0.350077 0.966311 -838.790894 0.000009 0.000003 -179.999985 838.791565
265 0.350077 0.966311 -838.790894 0.000009 0.000003 -179.999985 838.791565
[Rear_Toe1_01]
263 0.653352 83.966492 -371.173737 0.288595 41.740116 90.411682 380.553192
264 0.653352 83.966492 -371.173737 0.288470 41.783627 90.412048 380.553192
265 0.653352 83.966492 -371.173737 0.288343 41.827133 90.412422 380.553192
[Rear_Toe2_01]
263 178.200760 -294.826019 -362.060547 -7.212769 34.288723 -66.273560 499.765686
264 178.200760 -294.826019 -362.060547 -7.205417 34.340450 -66.270897 499.765686
265 178.200760 -294.826019 -362.060547 -7.198057 34.392132 -66.268219 499.765686
[Rear_Toe3_01]
263 -153.359680 -308.780914 -362.060852 3.301164 33.363827 -112.535233 499.952881
264 -153.359680 -308.780914 -362.060852 3.298229 33.402378 -112.536682 499.952881
265 -153.359680 -308.780914 -362.060852 3.295292 33.440926 -112.538101 499.952881
[planeLockWeightCenter]
263 -0.000062 0.000238 0.000000 -0.011814 -0.004373 -0.000015 0.000246
264 -0.000062 0.000238 0.000000 -0.011814 -0.004373 -0.000015 0.000246
265 -0.000062 0.000238 0.000000 -0.011814 -0.004373 -0.000015 0.000246
[Rear_Toe1_02]
263 379.707825 0.194073 0.000477 -0.000250 -31.789122 0.006939 379.707855
264 379.707825 0.194073 0.000477 -0.000250 -31.785454 0.006938 379.707855
265 379.707825 0.194073 0.000477 -0.000250 -31.781786 0.006938 379.707855
[Rear_Toe1_03]
263 500.129700 0.165701 0.000119 -0.000073 52.194324 0.007319 500.129761
264 500.129700 0.165701 0.000119 -0.000086 52.073139 0.007309 500.129761
265 500.129700 0.165701 0.000119 -0.000098 51.951988 0.007299 500.129761
[Rear_Toe2_02]
263 340.494507 0.000238 -0.000954 0.001192 -69.916580 0.001192 340.494507
264 340.494507 0.000238 -0.000954 0.001192 -69.918335 0.001192 340.494507
265 340.494507 0.000238 -0.000954 0.001192 -69.920044 0.001192 340.494507
[Rear_Toe2_03]
263 433.103577 0.000000 0.000238 0.006740 69.945526 0.006740 433.103546
264 433.103577 0.000000 0.000238 0.006729 69.911728 0.006729 433.103546
265 433.103577 0.000000 0.000238 0.006718 69.877953 0.006718 433.103546
[Rear_Toe3_02]
263 340.494141 -0.000358 -0.000477 0.008302 -67.310341 -0.009474 340.494171
264 340.494141 -0.000358 -0.000477 0.008302 -67.311943 -0.009475 340.494171
265 340.494141 -0.000358 -0.000477 0.008303 -67.313522 -0.009475 340.494171
[Rear_Toe3_03]
263 433.103577 0.001431 -0.000238 -0.000986 66.079636 -0.004561 433.103546
264 433.103577 0.001431 -0.000238 -0.000983 66.049446 -0.004557 433.103546
265 433.103577 0.001431 -0.000238 -0.000979 66.019295 -0.004554 433.103546
[Back_Bone]
263 1312.175781 -701.934692 0.000954 1.525217 0.147067 -88.083351 1488.125488
264 1312.175781 -701.934692 0.000954 1.509512 0.117281 -87.217331 1488.125488
265 1312.175781 -701.934692 0.000954 1.493361 0.087735 -86.351524 1488.125488
[Head]
263 1406.159424 809.709290 0.001431 0.000625 -1.475623 7.768025 1622.625488
264 1406.159424 809.709290 0.001431 0.000625 -1.475623 7.768025 1622.625488
265 1406.159424 809.709290 0.001431 0.000625 -1.475623 7.768025 1622.625488
[Motor_Bone]
263 1158.364380 -417.834747 0.000477 -0.095374 0.076117 -105.900047 1231.419434
264 1158.364380 -417.834747 0.000477 -0.095377 0.076113 -105.903969 1231.419434
265 1158.364380 -417.834747 0.000477 -0.095380 0.076110 -105.907883 1231.419434
[Ping_Mechanism]
263 1234.064575 -440.951569 -0.303381 0.000103 -0.000053 82.120995 1310.478394
264 1233.984985 -441.156219 -0.307168 0.000103 -0.000053 82.120995 1310.472412
265 1233.905396 -441.360840 -0.310955 0.000103 -0.000053 82.120995 1310.466431
[BN_LookIK]
263 193.241119 1380.371704 -0.002861 0.000000 89.965736 -31.038179 1393.832153
264 193.241119 1380.371704 -0.002861 0.000000 89.965736 -31.038179 1393.832153
265 193.241119 1380.371704 -0.002861 0.000000 89.965736 -31.038179 1393.832153
[bottomMouth]
263 -435.092926 615.759399 -0.000954 -0.000022 0.000016 73.527184 753.966492
264 -435.092926 615.759399 -0.000954 -0.000022 0.000016 73.527184 753.966492
265 -435.092926 615.759399 -0.000954 -0.000022 0.000016 73.527184 753.966492
[L_Mouth01]
263 554.440979 7.658243 838.222046 150.204178 23.759130 109.605339 1005.027161
264 554.440979 7.658243 838.222046 150.204178 23.759130 109.605339 1005.027161
265 554.440979 7.658243 838.222046 150.204178 23.759130 109.605339 1005.027161
[L_mouthFront]
263 551.629089 934.514771 339.150421 0.000081 2.804060 79.119301 1136.941284
264 551.629089 934.514771 339.150421 0.000081 2.804060 79.119301 1136.941284
265 551.629089 934.514771 339.150421 0.000081 2.804060 79.119301 1136.941284
[mouthGun]
263 55.332661 1627.420898 0.000000 0.000023 0.000009 -11.038128 1628.361328
264 55.332661 1627.420898 0.000000 0.000023 0.000009 -11.038128 1628.361328
265 55.332661 1627.420898 0.000000 0.000023 0.000009 -11.038128 1628.361328
[R_Mouth01]
263 554.442383 7.659197 -838.223938 29.795891 -23.759109 109.605331 1005.029541
264 554.442383 7.659197 -838.223938 29.795891 -23.759109 109.605331 1005.029541
265 554.442383 7.659197 -838.223938 29.795891 -23.759109 109.605331 1005.029541
[R_mouthFront]
263 551.629089 934.514282 -339.151367 0.000029 -2.803930 79.119133 1136.941162
264 551.629089 934.514282 -339.151367 0.000029 -2.803930 79.119133 1136.941162
265 551.629089 934.514282 -339.151367 0.000029 -2.803930 79.119133 1136.941162
[TopMouth]
263 461.269867 -56.106091 -0.008583 -0.000059 -0.000268 92.025169 464.669525
264 461.269867 -56.106091 -0.008583 -0.000059 -0.000268 92.025169 464.669525
265 461.269867 -56.106091 -0.008583 -0.000059 -0.000268 92.025169 464.669525
[weapon_bone]
263 -987.239868 1448.372803 0.001431 0.000000 89.965736 -31.038221 1752.833740
264 -987.239868 1448.372803 0.001431 0.000000 89.965736 -31.038221 1752.833740
265 -987.239868 1448.372803 0.001431 0.000000 89.965736 -31.038221 1752.833740
